<svg width="73" height="45" viewBox="0 0 73 45" fill="none" xmlns="http://www.w3.org/2000/svg">
<circle cx="36.5" cy="22.5" r="22.5" fill="#0D6D6F"/>
<path d="M7.596 29.144C6.636 29.144 5.748 28.988 4.932 28.676C4.128 28.352 3.426 27.902 2.826 27.326C2.238 26.738 1.776 26.054 1.44 25.274C1.104 24.494 0.936 23.636 0.936 22.7C0.936 21.764 1.104 20.906 1.44 20.126C1.776 19.346 2.244 18.668 2.844 18.092C3.444 17.504 4.146 17.054 4.95 16.742C5.766 16.418 6.654 16.256 7.614 16.256C8.586 16.256 9.48 16.424 10.296 16.76C11.124 17.084 11.826 17.57 12.402 18.218L11.232 19.352C10.752 18.848 10.212 18.476 9.612 18.236C9.012 17.984 8.37 17.858 7.686 17.858C6.978 17.858 6.318 17.978 5.706 18.218C5.106 18.458 4.584 18.794 4.14 19.226C3.696 19.658 3.348 20.174 3.096 20.774C2.856 21.362 2.736 22.004 2.736 22.7C2.736 23.396 2.856 24.044 3.096 24.644C3.348 25.232 3.696 25.742 4.14 26.174C4.584 26.606 5.106 26.942 5.706 27.182C6.318 27.422 6.978 27.542 7.686 27.542C8.37 27.542 9.012 27.422 9.612 27.182C10.212 26.93 10.752 26.546 11.232 26.03L12.402 27.164C11.826 27.812 11.124 28.304 10.296 28.64C9.48 28.976 8.58 29.144 7.596 29.144ZM14.5939 29V19.46H16.3219V26.408L22.1719 19.46H23.7379V29H22.0099V22.052L16.1779 29H14.5939ZM33.194 29V25.652L33.464 25.976H30.422C29.15 25.976 28.154 25.706 27.434 25.166C26.726 24.626 26.372 23.84 26.372 22.808C26.372 21.704 26.75 20.87 27.506 20.306C28.274 19.742 29.294 19.46 30.566 19.46H34.742V29H33.194ZM26.282 29L28.874 25.346H30.656L28.136 29H26.282ZM33.194 25.112V20.486L33.464 20.972H30.62C29.828 20.972 29.216 21.122 28.784 21.422C28.352 21.71 28.136 22.19 28.136 22.862C28.136 24.11 28.94 24.734 30.548 24.734H33.464L33.194 25.112ZM38.1135 29V19.46H39.8415V23.51H45.2775V19.46H47.0055V29H45.2775V25.004H39.8415V29H38.1135ZM50.3654 29V19.46H52.0934V26.408L57.9434 19.46H59.5094V29H57.7814V22.052L51.9494 29H50.3654ZM67.1115 29.108C66.0915 29.108 65.1915 28.898 64.4115 28.478C63.6435 28.058 63.0435 27.482 62.6115 26.75C62.1915 26.018 61.9815 25.178 61.9815 24.23C61.9815 23.282 62.1855 22.442 62.5935 21.71C63.0135 20.978 63.5835 20.408 64.3035 20C65.0355 19.58 65.8575 19.37 66.7695 19.37C67.6935 19.37 68.5095 19.574 69.2175 19.982C69.9255 20.39 70.4775 20.966 70.8735 21.71C71.2815 22.442 71.4855 23.3 71.4855 24.284C71.4855 24.356 71.4795 24.44 71.4675 24.536C71.4675 24.632 71.4615 24.722 71.4495 24.806H63.3315V23.564H70.5495L69.8475 23.996C69.8595 23.384 69.7335 22.838 69.4695 22.358C69.2055 21.878 68.8395 21.506 68.3715 21.242C67.9155 20.966 67.3815 20.828 66.7695 20.828C66.1695 20.828 65.6355 20.966 65.1675 21.242C64.6995 21.506 64.3335 21.884 64.0695 22.376C63.8055 22.856 63.6735 23.408 63.6735 24.032V24.32C63.6735 24.956 63.8175 25.526 64.1055 26.03C64.4055 26.522 64.8195 26.906 65.3475 27.182C65.8755 27.458 66.4815 27.596 67.1655 27.596C67.7295 27.596 68.2395 27.5 68.6955 27.308C69.1635 27.116 69.5715 26.828 69.9195 26.444L70.8735 27.56C70.4415 28.064 69.9015 28.448 69.2535 28.712C68.6175 28.976 67.9035 29.108 67.1115 29.108Z" fill="white"/>
</svg>
